<svg version="1.2" xmlns="http://www.w3.org/2000/svg" viewBox="0 0 1582 512" width="1582" height="512">
	<path fill="#000000" d="m16 256c0-132.7 107.3-240 240-240 132.7 0 240 107.3 240 240 0 66.4-26.8 126.4-70.2 169.8l70.2 70.2h-240c-132.7 0-240-107.3-240-240z"/>
	<g fill="#FFFFFF">
		<path d="m184 239.6c0-39.8 32.2-72 72-72 39.8 0 72 32.2 72 72 0 36.6-45.6 58.4-45.6 84.8 0 9.6 0 9.6 0 9.6h-52.8c0 0 0 0 0-9.6 0-26.4-45.6-39.2-45.6-84.8z"/>
		<path d="m282.4 340.4v29.6c0 3.5-2.9 6.4-6.4 6.4h-40c-3.5 0-6.4-2.9-6.4-6.4v-29.6"/>
		<path stroke-width="8" stroke="#FFFFFF" stroke-linecap="round" stroke-linejoin="round" d="m340.8 242.8v-6.4h19.2v6.4zm-169.6-6.4v6.4h-19.2v-6.4zm88-81.6h-6.4v-19.2h6.4zm-60.9 23l-4.6 4.4-13.6-13.9 4.6-4.5zm119.9 4.5l-4.5-4.5 13.6-13.6 4.5 4.5z"/>
	</g>
	<path fill="#000000" stroke-width="30" stroke="#000000" d="m807 151c38.2 0 71.6 20.3 90 50.8v-50.8h15v330h-15v-170.8c-18.4 30.5-51.8 50.8-90 50.8-58.1 0-105-46.9-105-105 0-58.1 46.9-105 105-105zm-90 105c0 49.8 40.2 90 90 90 49.8 0 90-40.2 90-90 0-49.8-40.2-90-90-90-49.8 0-90 40.2-90 90zm288 15c0 41.5 33.5 75 75 75 41.5 0 75-33.5 75-75v-15-105h15v120c0 49.8-40.2 90-90 90-49.8 0-90-40.2-90-90v-15-105h15zm243-120h15v210h-15zm7.5-60c-8.3 0-15-6.7-15-15 0-8.3 6.7-15 15-15 8.3 0 15 6.7 15 15 0 8.3-6.7 15-15 15zm295.5 165c0 58.1-46.9 105-105 105-38.2 0-71.6-20.3-90-50.8v170.8h-15v-330h15v50.8c18.4-30.5 51.8-50.8 90-50.8 58.1 0 105 46.9 105 105zm-15 0c0-49.8-40.2-90-90-90-49.8 0-90 40.2-90 90 0 49.8 40.2 90 90 90 49.8 0 90-40.2 90-90z"/>
</svg>