<svg version="1.2" xmlns="http://www.w3.org/2000/svg" viewBox="0 0 1440 512" width="1440" height="512">
	<path fill="#000000" d="m16 256c0-132.7 107.3-240 240-240 132.7 0 240 107.3 240 240 0 66.4-26.8 126.4-70.2 169.8l70.2 70.2h-240c-132.7 0-240-107.3-240-240z"/>
	<g fill="#FFFFFF">
		<path d="m184 240.8c0-39.8 32.2-72 72-72 39.8 0 72 32.2 72 72 0 45.6-45.6 58.4-45.6 84.8 0 9.6 0 9.6 0 9.6h-52.8c0 0 0 0 0-9.6 0-26.4-45.6-39.2-45.6-84.8z"/>
		<path d="m282.4 341.6v29.6c0 3.5-2.9 6.4-6.4 6.4h-40c-3.5 0-6.4-2.9-6.4-6.4v-29.6"/>
		<path stroke-width="8" stroke="#FFFFFF" stroke-linecap="round" stroke-linejoin="round" d="m150 240.8q0-1.6 0-3.2h21.3q-0.1 1.6-0.1 3.2 0 1.6 0.1 3.2h-21.3q0-1.6 0-3.2zm106-106q1.6 0 3.2 0v21.3q-1.6-0.1-3.2-0.1-1.6 0-3.2 0.1v-21.3q1.6 0 3.2 0zm106 106q0 1.6 0 3.2h-21.3q0.1-1.6 0.1-3.2 0-1.6-0.1-3.2h21.3q0 1.6 0 3.2zm-183.2-72.7q2.2-2.3 4.5-4.5l15 15q-2.3 2.2-4.5 4.5zm149.9-4.5q2.3 2.2 4.5 4.5l-15 15q-2.2-2.3-4.5-4.5z"/>
	</g>
	<path fill="#000000" d="m784 320c-53.1 0-96-42.9-96-96 0-53.1 42.9-96 96-96 24.6 0 47 9.2 64 24.4v-24.4h32v288h-32v-120.4c-17 15.2-39.4 24.4-64 24.4zm64-96c0-35.4-28.6-64-64-64-35.4 0-64 28.6-64 64 0 35.4 28.6 64 64 64 35.4 0 64-28.6 64-64zm160 96c-44.1 0-79.7-35.5-80-79.5v-112.5h32v112.5c0.3 26.3 21.6 47.5 48 47.5 26.4 0 47.7-21.2 48-47.5v-112.5h32v112.5c-0.3 44-35.9 79.5-80 79.5zm136-192h32v192h-32zm16-48c-13.3 0-24-10.7-24-24 0-13.3 10.7-24 24-24 13.3 0 24 10.7 24 24 0 13.3-10.7 24-24 24zm104 215.6v120.4h-32v-288h32v24.4c17-15.2 39.4-24.4 64-24.4 53.1 0 96 42.9 96 96 0 53.1-42.9 96-96 96-24.6 0-47-9.2-64-24.4zm64-7.6c35.4 0 64-28.6 64-64 0-35.4-28.6-64-64-64-35.4 0-64 28.6-64 64 0 35.4 28.6 64 64 64z"/>
</svg>