<svg version="1.2" xmlns="http://www.w3.org/2000/svg" viewBox="0 0 1522 454" width="1522" height="454">
	<g fill="#000000">
		<path d="m794.2 299.2c-20.5 25-50.7 41.4-85 41.4-64 0-116.7-54.8-116.7-117.7 0-64 52.7-116.8 116.7-116.8 34.3 0 64.5 15.9 85 40.5v-36.9h34.3v327.7h-34.3zm-2-76.3c0-45.6-39.5-82.9-84-82.9-45.6 0-79.9 37.3-79.9 82.9 0 44.6 34.3 84 79.9 84 44.5 0 84-39.4 84-84zm300.5 112.1h-34.3v-27.1c-17.9 19.5-43 30.7-73.7 30.7-64.5 0-92.2-28.6-92.2-100.3v-128.5h34.3v128.5c0 44.5 20.5 66.5 57.9 66.5 45.5 0 73.7-25.6 73.7-75.2v-119.8h34.3zm66.6-295.5c0-12.3 10.7-23.5 24.5-23.5 12.8 0 24.1 11.2 24.1 23.5 0 13.9-11.3 24.6-24.1 24.6-13.8 0-24.5-10.7-24.5-24.6zm7.1 70.2h35.9v225.3h-35.9zm339 113.1c0 63-52.8 117.8-116.8 117.8-34.3 0-64.5-16.4-85-41.5v138.2h-34.3v-327.6h34.3v36.8c20.5-24.6 50.7-40.4 85-40.4 64 0 116.8 52.7 116.8 116.7zm-35.9 0c0-45.6-34.3-82.9-79.8-82.9-44.6 0-84 37.3-84 82.9 0 44.6 39.4 84 84 84 45.5 0 79.8-39.4 79.8-84z"/>
		<path d="m16 246c0-106.2 85.8-192 192-192 106.2 0 192 85.8 192 192 0 53.1-21.5 101.1-56.2 135.8l56.2 56.2h-192c-106.2 0-192-85.8-192-192z"/>
	</g>
	<g fill="#FFFFFF">
		<path d="m150.4 232.9c0-31.9 25.7-57.6 57.6-57.6 31.9 0 57.6 25.7 57.6 57.6 0 29.3-36.5 46.7-36.5 67.8 0 7.7 0 7.7 0 7.7h-42.2c0 0 0 0 0-7.7 0-21.1-36.5-31.3-36.5-67.8z"/>
		<path d="m229.1 313.5v23.7c0 2.8-2.3 5.1-5.1 5.1h-32c-2.8 0-5.1-2.3-5.1-5.1v-23.7"/>
		<path stroke-width="8" stroke="#FFFFFF" stroke-linecap="round" stroke-linejoin="round" d="m275.8 235.4v-5.1h15.4v5.1zm-135.7-5.1v5.1h-15.3v-5.1zm70.4-65.3h-5.2v-15.3h5.2zm-48.7 18.4l-3.7 3.5-10.9-11.1 3.7-3.6zm95.9 3.6l-3.6-3.6 10.8-10.9 3.6 3.6z"/>
	</g>
</svg>