<svg version="1.2" xmlns="http://www.w3.org/2000/svg" viewBox="0 0 1409 461" width="1409" height="461">
	<path fill="#000000" d="m677.2 302.2c-20.5 25-50.7 41.4-85 41.4-64 0-116.7-54.8-116.7-117.7 0-64 52.7-116.8 116.7-116.8 34.3 0 64.5 15.9 85 40.5v-36.9h34.3v327.7h-34.3zm-2-76.4c0-45.5-39.5-82.9-84-82.9-45.6 0-79.9 37.4-79.9 82.9 0 44.6 34.3 84 79.9 84 44.5 0 84-39.4 84-84zm300.5 112.2h-34.3v-27.2c-17.9 19.5-43 30.7-73.7 30.7-64.5 0-92.2-28.6-92.2-100.3v-128.5h34.3v128.5c0 44.5 20.5 66.6 57.9 66.6 45.5 0 73.7-25.6 73.7-75.3v-119.8h34.3zm66.6-295.5c0-12.3 10.7-23.5 24.5-23.5 12.8 0 24.1 11.2 24.1 23.5 0 13.8-11.3 24.6-24.1 24.6-13.8 0-24.5-10.8-24.5-24.6zm7.1 70.2h35.9v225.2h-35.9zm339 113c0 63-52.8 117.8-116.8 117.8-34.3 0-64.5-16.4-85-41.5v138.3h-34.3v-327.7h34.3v36.8c20.5-24.5 50.7-40.4 85-40.4 64 0 116.8 52.7 116.8 116.7zm-35.9 0c0-45.5-34.3-82.9-79.8-82.9-44.6 0-84 37.4-84 82.9 0 44.6 39.4 84 84 84 45.5 0 79.8-39.4 79.8-84z"/>
	<path fill="#000000" d="m193 383l-13.5-31q1 4.5 2 8.5 1 4 3 8 1.5 4 4 7.5 2 3.5 4.5 7-8.5 0-16.5-2-8-2.5-15.5-6.5-7.5-4-14-9.5-6-6-10.5-13c-71.5-11-122-75.5-116.5-147.5 5.5-72 65.5-127.5 138-127.5 72.5 0 132.5 55.5 138 127.5 5.5 72-45 136.5-116.5 147.5"/>
	<path fill="#ffffff" d="m165.5 172.5q3.5 1 7 2 3.5 1.5 6.5 3.5 3 2 5.5 4.5 3 3 5 6 2.5 3.5 4 7 1.5 3.5 2 7.5 1 3.5 1 7.5 0 4-0.5 7.5-1 4-2.5 7.5-1 3.5-3.5 6.5-2 3.5-4.5 6-2 1.5-3.5 3.5-1.5 1.5-2.5 3.5-1 2-1.5 4.5-0.5 2-1 4.5 0 1 0 1.5-0.5 1-1 1.5-1 1-1.5 1.5-1 0-2 0h-29q-1 0-2 0-0.5-0.5-1.5-1.5-0.5-0.5-1-1.5 0-0.5 0-1.5-0.5-2.5-1-4.5-0.5-2.5-1.5-4.5-1-2-2.5-4-1.5-1.5-3.5-3-2.5-3-4.5-6-2-3-3.5-6.5-1.5-3.5-2-7.5-1-3.5-1-7.5 0.5-7.5 3.5-14.5 3-7 8.5-12 5-5.5 12-8.5 7-3 14.5-3.5 3.5 0 7.5 0.5zm10.5 92.5c0.5 1 1 2 1 3.5 0 1-0.5 2.5-1 3q-1.5 1.5-3.5 1.5h-29q-2 0-3.5-1.5-1-1.5-1-3 0-2 1-3.5 1.5-1.5 3.5-1.5h29q2 0 3.5 1.5zm-5 14.5c1 0.5 1.5 2 1.5 3 0 1.5-0.5 2.5-1.5 3.5q-1.5 1.5-3.5 1.5h-19q-2 0-3.5-1.5-1.5-1.5-1.5-3.5 0-2 1.5-3 1.5-1.5 3.5-1.5h19q2 0 3.5 1.5zm-15-117.5q-0.5 0-1.5-1-0.5-0.5-1-1.5-0.5-1-0.5-2v-9.5q0-2 1.5-3.5 1.5-1 3.5-1 2 0 3.5 1c1 1 1.5 2.5 1.5 3.5v9.5q0 1-0.5 2-0.5 1-1 1.5-1 1-1.5 1-1 0.5-2 0.5-1 0-2-0.5zm-47.5 45c1 1 1.5 2.5 1.5 3.5 0 1.5-0.5 2.5-1.5 3.5q-1.5 1.5-3.5 1.5h-9.5q-2 0-3.5-1.5-1.5-1.5-1.5-3.5 0-2 1.5-3.5 1.5-1 3.5-1h9.5q2 0 3.5 1zm115.5 0c1 1 1.5 2.5 1.5 3.5 0 1.5-0.5 2.5-1.5 3.5q-1.5 1.5-3.5 1.5h-9.5q-2 0-3.5-1.5-1.5-1.5-1.5-3.5 0-2 1.5-3.5 1.5-1 3.5-1h9.5q2 0 3.5 1zm-17.5-42.5q0.5 1 0.5 2 0 1-0.5 1.5 0 1-1 1.5l-6.5 7q-0.5 0.5-1 0.5-0.5 0.5-1 0.5 0 0.5-0.5 0.5-0.5 0-1 0-0.5 0-1 0-0.5 0-1-0.5-0.5 0-1-0.5 0 0-0.5-0.5-0.5-0.5-1-1.5-0.5-1-0.5-2 0-1 0.5-1.5 0.5-1 1-2l7-6.5q0.5-0.5 1.5-1 0.5-0.5 1.5-0.5 1 0 2 0.5 1 0.5 1.5 1 1 0.5 1 1.5zm-83 12.5q-0.5 0.5-1 0.5-0.5 0.5-1 0.5-0.5 0-1 0-0.5 0-1 0-0.5 0-1-0.5 0 0-0.5-0.5-0.5 0-1-0.5l-6.5-7q-1.5-1-1-3 0-2 1-3.5 1.5-1 3.5-1 1.5 0 3 1l7 6.5q0.5 1 1 2 0.5 0.5 0.5 1.5 0 1-0.5 2-0.5 1-1 1.5-0.5 0.5-0.5 0.5z"/>
</svg>