<svg version="1.2" xmlns="http://www.w3.org/2000/svg" viewBox="0 0 954 472" width="954" height="472">
	<path fill="#000000" d="m222.2 446.4h34.3v-327.7h-34.3v36.9c-20.5-24.6-50.7-40.5-85-40.5-64 0-116.7 52.8-116.7 116.8 0 62.9 52.7 117.7 116.7 117.7 34.3 0 64.5-16.4 85-41.4zm-86-130.6c-45.6 0-79.9-39.4-79.9-84 0-45.5 34.3-82.9 79.9-82.9 44.5 0 84 37.4 84 82.9 0 44.6-39.5 84-84 84zm384.5-197.1h-34.3v119.8c0 49.7-28.2 75.3-73.7 75.3-37.4 0-57.9-22.1-57.9-66.6v-128.5h-34.3v128.5c0 71.7 27.7 100.3 92.2 100.3 30.7 0 55.8-11.2 73.7-30.7v27.2h34.3zm91.1-45.6c12.8 0 24.1-10.8 24.1-24.6 0-12.3-11.3-23.5-24.1-23.5-13.8 0-24.5 11.2-24.5 23.5 0 13.8 10.7 24.6 24.5 24.6zm-17.4 270.8h35.9v-225.2h-35.9zm222.2-228.9c-34.3 0-64.5 15.9-85 40.4v-36.8h-34.3v327.7h34.3v-138.3c20.5 25.1 50.7 41.5 85 41.5 64 0 116.8-54.8 116.8-117.8 0-64-52.8-116.7-116.8-116.7zm1.1 200.7c-44.6 0-84-39.4-84-84 0-45.5 39.4-82.9 84-82.9 45.5 0 79.8 37.4 79.8 82.9 0 44.6-34.3 84-79.8 84z"/>
</svg>