<svg version="1.2" xmlns="http://www.w3.org/2000/svg" viewBox="0 0 544 544" width="544" height="544">
	<path fill="#FFFFFF" d="m0 32c0-17.7 14.3-32 32-32h480c17.7 0 32 14.3 32 32v480c0 17.7-14.3 32-32 32h-480c-17.7 0-32-14.3-32-32z"/>
	<path fill="#000000" d="m32 272c0-132.7 107.3-240 240-240 132.7 0 240 107.3 240 240 0 66.4-26.8 126.4-70.2 169.8l70.2 70.2h-240c-132.7 0-240-107.3-240-240z"/>
	<g fill="#FFFFFF">
		<path d="m200 256.8c0-39.8 32.2-72 72-72 39.8 0 72 32.2 72 72 0 45.6-45.6 58.4-45.6 84.8 0 9.6 0 9.6 0 9.6h-52.8c0 0 0 0 0-9.6 0-26.4-45.6-39.2-45.6-84.8z"/>
		<path d="m298.4 357.6v29.6c0 3.5-2.9 6.4-6.4 6.4h-40c-3.5 0-6.4-2.9-6.4-6.4v-29.6"/>
		<path stroke-width="8" stroke="#FFFFFF" stroke-linecap="round" stroke-linejoin="round" d="m166 256.8q0-1.6 0-3.2h21.3q-0.1 1.6-0.1 3.2 0 1.6 0.1 3.2h-21.3q0-1.6 0-3.2zm106-106q1.6 0 3.2 0v21.3q-1.6-0.1-3.2-0.1-1.6 0-3.2 0.1v-21.3q1.6 0 3.2 0zm106 106q0 1.6 0 3.2h-21.3q0.1-1.6 0.1-3.2 0-1.6-0.1-3.2h21.3q0 1.6 0 3.2zm-183.2-72.7q2.2-2.3 4.5-4.5l15 15q-2.3 2.2-4.5 4.5zm149.9-4.5q2.3 2.2 4.5 4.5l-15 15q-2.2-2.3-4.5-4.5z"/>
	</g>
</svg>