<svg version="1.2" xmlns="http://www.w3.org/2000/svg" viewBox="0 0 64 64" width="64" height="64">
	<path id="Layer" fill-rule="evenodd" fill="#000000" d="m39 62.6q0 0 0 0l-2.7-6.2q0.2 0.9 0.4 1.7 0.2 0.8 0.6 1.6 0.3 0.8 0.8 1.5 0.4 0.7 0.9 1.4-1.7 0-3.3-0.4-1.6-0.5-3.1-1.3-1.5-0.8-2.8-1.9-1.2-1.2-2.1-2.6c-14.3-2.2-24.4-15.1-23.3-29.5 1.1-14.4 13.1-25.5 27.6-25.5 14.5 0 26.5 11.1 27.6 25.5 1.1 14.4-9 27.3-23.3 29.5m2.7 6.2q0 0 0 0z"/>
	<path id="Layer" fill="#ffffff" d="m33.5 20.5q0.7 0.2 1.4 0.4 0.7 0.3 1.3 0.7 0.6 0.4 1.1 0.9 0.6 0.6 1 1.2 0.5 0.7 0.8 1.4 0.3 0.7 0.4 1.5 0.2 0.7 0.2 1.5 0 0.8-0.1 1.5-0.2 0.8-0.5 1.5-0.2 0.7-0.7 1.3-0.4 0.7-0.9 1.2-0.4 0.3-0.7 0.7-0.3 0.3-0.5 0.7-0.2 0.4-0.3 0.9-0.1 0.4-0.2 0.9 0 0.2 0 0.3-0.1 0.2-0.2 0.3-0.2 0.2-0.3 0.3-0.2 0-0.4 0h-5.8q-0.2 0-0.4 0-0.1-0.1-0.3-0.3-0.1-0.1-0.2-0.3 0-0.1 0-0.3-0.1-0.5-0.2-0.9-0.1-0.5-0.3-0.9-0.2-0.4-0.5-0.8-0.3-0.3-0.7-0.6-0.5-0.6-0.9-1.2-0.4-0.6-0.7-1.3-0.3-0.7-0.4-1.5-0.2-0.7-0.2-1.5 0.1-1.5 0.7-2.9 0.6-1.4 1.7-2.4 1-1.1 2.4-1.7 1.4-0.6 2.9-0.7 0.7 0 1.5 0.1zm2.1 18.5c0.1 0.2 0.2 0.4 0.2 0.7 0 0.2-0.1 0.5-0.2 0.6q-0.3 0.3-0.7 0.3h-5.8q-0.4 0-0.7-0.3-0.2-0.3-0.2-0.6 0-0.4 0.2-0.7 0.3-0.3 0.7-0.3h5.8q0.4 0 0.7 0.3zm-1 2.9c0.2 0.1 0.3 0.4 0.3 0.6 0 0.3-0.1 0.5-0.3 0.7q-0.3 0.3-0.7 0.3h-3.8q-0.4 0-0.7-0.3-0.3-0.3-0.3-0.7 0-0.4 0.3-0.6 0.3-0.3 0.7-0.3h3.8q0.4 0 0.7 0.3zm-3-23.5q-0.1 0-0.3-0.2-0.1-0.1-0.2-0.3-0.1-0.2-0.1-0.4v-1.9q0-0.4 0.3-0.7 0.3-0.2 0.7-0.2 0.4 0 0.7 0.2c0.2 0.2 0.3 0.5 0.3 0.7v1.9q0 0.2-0.1 0.4-0.1 0.2-0.2 0.3-0.2 0.2-0.3 0.2-0.2 0.1-0.4 0.1-0.2 0-0.4-0.1zm-9.5 9c0.2 0.2 0.3 0.5 0.3 0.7 0 0.3-0.1 0.5-0.3 0.7q-0.3 0.3-0.7 0.3h-1.9q-0.4 0-0.7-0.3-0.3-0.3-0.3-0.7 0-0.4 0.3-0.7 0.3-0.2 0.7-0.2h1.9q0.4 0 0.7 0.2zm23.1 0c0.2 0.2 0.3 0.5 0.3 0.7 0 0.3-0.1 0.5-0.3 0.7q-0.3 0.3-0.7 0.3h-1.9q-0.4 0-0.7-0.3-0.3-0.3-0.3-0.7 0-0.4 0.3-0.7 0.3-0.2 0.7-0.2h1.9q0.4 0 0.7 0.2zm-3.5-8.5q0.1 0.2 0.1 0.4 0 0.2-0.1 0.3 0 0.2-0.2 0.3l-1.3 1.4q-0.1 0.1-0.2 0.1-0.1 0.1-0.2 0.1 0 0.1-0.1 0.1-0.1 0-0.2 0-0.1 0-0.2 0-0.1 0-0.2-0.1-0.1 0-0.2-0.1 0 0-0.1-0.1-0.1-0.1-0.2-0.3-0.1-0.2-0.1-0.4 0-0.2 0.1-0.3 0.1-0.2 0.2-0.4l1.4-1.3q0.1-0.1 0.3-0.2 0.1-0.1 0.3-0.1 0.2 0 0.4 0.1 0.2 0.1 0.3 0.2 0.2 0.1 0.2 0.3zm-16.6 2.5q-0.1 0.1-0.2 0.1-0.1 0.1-0.2 0.1-0.1 0-0.2 0-0.1 0-0.2 0-0.1 0-0.2-0.1 0 0-0.1-0.1-0.1 0-0.2-0.1l-1.3-1.4q-0.3-0.2-0.2-0.6 0-0.4 0.2-0.7 0.3-0.2 0.7-0.2 0.3 0 0.6 0.2l1.4 1.3q0.1 0.2 0.2 0.4 0.1 0.1 0.1 0.3 0 0.2-0.1 0.4-0.1 0.2-0.2 0.3-0.1 0.1-0.1 0.1z"/>
</svg>