<svg version="1.2" xmlns="http://www.w3.org/2000/svg" viewBox="0 0 32 32" width="32" height="32">
	<path fill="#000000" d="m13.9 26.6c-6.4-1-10.9-6.8-10.3-13.3 0.5-6.4 5.9-11.4 12.4-11.4 6.4 0 11.8 5 12.4 11.4 0.5 6.5-4 12.3-10.4 13.3q0.2 0.6 0.5 1.1 0.2 0.5 0.7 0.9 0.4 0.5 0.9 0.7 0.5 0.3 1 0.5-1 0.3-2.1 0.2-1-0.1-2-0.5-1-0.4-1.8-1.2-0.8-0.7-1.3-1.7z"/>
	<path fill="#FFFFFF" d="m14.2 18.2l-1.8-7.9c-0.8-5 7.9-5 7.1 0l-1.8 7.9zm0 0.7h3.6v2.1c0 1.6-3.6 1.6-3.6 0z"/>
	<g stroke-width="1.2" stroke="#FFFFFF" stroke-linecap="round" stroke-linejoin="round">
		<path d="m9.2 9l1.1 0.7"/>
		<path d="m8.5 12.4h1.3"/>
		<path d="m9.2 15.7l1.1-0.7"/>
		<path d="m21.7 9.7l1.1-0.7"/>
		<path d="m22.1 12.4h1.3"/>
		<path d="m21.7 15l1.1 0.7"/>
	</g>
</svg>