<svg version="1.2" xmlns="http://www.w3.org/2000/svg" viewBox="0 0 544 544" width="544" height="544">
	<path fill="#FFFFFF" d="m0 32c0-17.7 14.3-32 32-32h480c17.7 0 32 14.3 32 32v480c0 17.7-14.3 32-32 32h-480c-17.7 0-32-14.3-32-32z"/>
	<path fill="#000000" d="m32 272c0-132.7 107.3-240 240-240 132.7 0 240 107.3 240 240 0 66.4-26.8 126.4-70.2 169.8l70.2 70.2h-240c-132.7 0-240-107.3-240-240z"/>
	<g fill="#FFFFFF">
		<path d="m200 255.6c0-39.8 32.2-72 72-72 39.8 0 72 32.2 72 72 0 36.6-45.6 58.4-45.6 84.8 0 9.6 0 9.6 0 9.6h-52.8c0 0 0 0 0-9.6 0-26.4-45.6-39.2-45.6-84.8z"/>
		<path d="m298.4 356.4v29.6c0 3.5-2.9 6.4-6.4 6.4h-40c-3.5 0-6.4-2.9-6.4-6.4v-29.6"/>
		<path stroke-width="8" stroke="#FFFFFF" stroke-linecap="round" stroke-linejoin="round" d="m356.8 258.8v-6.4h19.2v6.4zm-169.6-6.4v6.4h-19.2v-6.4zm88-81.6h-6.4v-19.2h6.4zm-60.9 23l-4.6 4.4-13.6-13.9 4.6-4.5zm119.9 4.5l-4.5-4.5 13.6-13.6 4.5 4.5z"/>
	</g>
</svg>