<svg version="1.2" xmlns="http://www.w3.org/2000/svg" viewBox="0 0 446 446" width="446" height="446">
	<path fill="#FFFFFF" d="m0 32c0-17.7 14.3-32 32-32h382c17.7 0 32 14.3 32 32v382c0 17.7-14.3 32-32 32h-382c-17.7 0-32-14.3-32-32z"/>
	<path fill="#000000" d="m193 377.5c-92.3-15.6-157.2-99.3-149.3-192.5 7.8-93.3 85.7-165 179.3-165 93.6 0 171.6 71.7 179.3 165 7.9 93.2-57.1 176.9-149.3 192.5q1.9 8.2 6 15.6c2.7 4.9 6.1 9.4 10.1 13.4 3.9 3.9 8.4 7.3 13.3 10q7.3 4.2 15.6 6c-9.9 2.9-20.3 4.1-30.6 3.4-10.3-0.6-20.4-3-29.9-7.1-9.5-4.1-18.3-9.7-25.8-16.8-7.6-7-13.9-15.3-18.7-24.5z"/>
	<path fill="#FFFFFF" d="m197.4 255.6l-25.6-115.2c-12-72 114.4-72 102.4 0l-25.6 115.2zm0 9.6h51.2v30.4c0 24-51.2 24-51.2 0z"/>
	<g stroke-width="16" stroke="#FFFFFF" stroke-linecap="round" stroke-linejoin="round">
		<path d="m124.5 122.9l16.6 9.5"/>
		<path d="m114.8 170.9h19.2"/>
		<path d="m124.5 218.9l16.6-9.6"/>
		<path d="m305.3 132.5l16.6-9.6"/>
		<path d="m311.7 170.9h19.1"/>
		<path d="m305.3 209.3l16.6 9.6"/>
	</g>
</svg>